<svg width="857" height="600" aria-label="A chart." style="overflow: hidden;"><defs id="defs"><clipPath id="_ABSTRACT_RENDERER_ID_14"><rect x="164" y="115" width="530" height="371"></rect></clipPath></defs><rect x="0" y="0" width="857" height="600" stroke="none" stroke-width="0" fill="#ffffff"></rect><g><rect x="708" y="115" width="135" height="14" stroke="none" stroke-width="0" fill-opacity="0" fill="#ffffff"></rect><g><rect x="708" y="115" width="135" height="14" stroke="none" stroke-width="0" fill-opacity="0" fill="#ffffff"></rect><g><text text-anchor="start" x="741" y="126.9" font-family="Arial" font-size="14" stroke="none" stroke-width="0" fill="#222222">numberOfWorks</text></g><rect x="708" y="115" width="28" height="14" stroke="none" stroke-width="0" fill="#3366cc"></rect></g></g><g><rect x="164" y="115" width="530" height="371" stroke="none" stroke-width="0" fill-opacity="0" fill="#ffffff"></rect><g clip-path="url(http://3.248.151.50:7200/sparql#_ABSTRACT_RENDERER_ID_14)"><g><rect x="164" y="485" width="530" height="1" stroke="none" stroke-width="0" fill="#cccccc"></rect><rect x="164" y="393" width="530" height="1" stroke="none" stroke-width="0" fill="#cccccc"></rect><rect x="164" y="300" width="530" height="1" stroke="none" stroke-width="0" fill="#cccccc"></rect><rect x="164" y="208" width="530" height="1" stroke="none" stroke-width="0" fill="#cccccc"></rect><rect x="164" y="115" width="530" height="1" stroke="none" stroke-width="0" fill="#cccccc"></rect></g><g><rect x="165.5" y="438" width="2" height="47" stroke="none" stroke-width="0" fill="#3366cc"></rect><rect x="169.5" y="406" width="2" height="79" stroke="none" stroke-width="0" fill="#3366cc"></rect><rect x="173.5" y="403" width="2" height="82" stroke="none" stroke-width="0" fill="#3366cc"></rect><rect x="177.5" y="442" width="2" height="43" stroke="none" stroke-width="0" fill="#3366cc"></rect><rect x="181.5" y="419" width="2" height="66" stroke="none" stroke-width="0" fill="#3366cc"></rect><rect x="185.5" y="443" width="2" height="42" stroke="none" stroke-width="0" fill="#3366cc"></rect><rect x="189.5" y="419" width="2" height="66" stroke="none" stroke-width="0" fill="#3366cc"></rect><rect x="193.5" y="425" width="2" height="60" stroke="none" stroke-width="0" fill="#3366cc"></rect><rect x="198.5" y="412" width="2" height="73" stroke="none" stroke-width="0" fill="#3366cc"></rect><rect x="202.5" y="431" width="2" height="54" stroke="none" stroke-width="0" fill="#3366cc"></rect><rect x="206.5" y="399" width="2" height="86" stroke="none" stroke-width="0" fill="#3366cc"></rect><rect x="210.5" y="419" width="2" height="66" stroke="none" stroke-width="0" fill="#3366cc"></rect><rect x="214.5" y="436" width="2" height="49" stroke="none" stroke-width="0" fill="#3366cc"></rect><rect x="218.5" y="419" width="2" height="66" stroke="none" stroke-width="0" fill="#3366cc"></rect><rect x="222.5" y="371" width="2" height="114" stroke="none" stroke-width="0" fill="#3366cc"></rect><rect x="226.5" y="406" width="2" height="79" stroke="none" stroke-width="0" fill="#3366cc"></rect><rect x="230.5" y="399" width="2" height="86" stroke="none" stroke-width="0" fill="#3366cc"></rect><rect x="234.5" y="325" width="2" height="160" stroke="none" stroke-width="0" fill="#3366cc"></rect><rect x="239.5" y="344" width="2" height="141" stroke="none" stroke-width="0" fill="#3366cc"></rect><rect x="243.5" y="371" width="2" height="114" stroke="none" stroke-width="0" fill="#3366cc"></rect><rect x="247.5" y="399" width="2" height="86" stroke="none" stroke-width="0" fill="#3366cc"></rect><rect x="251.5" y="379" width="2" height="106" stroke="none" stroke-width="0" fill="#3366cc"></rect><rect x="255.5" y="384" width="2" height="101" stroke="none" stroke-width="0" fill="#3366cc"></rect><rect x="259.5" y="353" width="2" height="132" stroke="none" stroke-width="0" fill="#3366cc"></rect><rect x="263.5" y="377" width="2" height="108" stroke="none" stroke-width="0" fill="#3366cc"></rect><rect x="267.5" y="392" width="2" height="93" stroke="none" stroke-width="0" fill="#3366cc"></rect><rect x="271.5" y="397" width="2" height="88" stroke="none" stroke-width="0" fill="#3366cc"></rect><rect x="276.5" y="379" width="2" height="106" stroke="none" stroke-width="0" fill="#3366cc"></rect><rect x="280.5" y="368" width="2" height="117" stroke="none" stroke-width="0" fill="#3366cc"></rect><rect x="284.5" y="338" width="2" height="147" stroke="none" stroke-width="0" fill="#3366cc"></rect><rect x="288.5" y="329" width="2" height="156" stroke="none" stroke-width="0" fill="#3366cc"></rect><rect x="292.5" y="358" width="2" height="127" stroke="none" stroke-width="0" fill="#3366cc"></rect><rect x="296.5" y="295" width="2" height="190" stroke="none" stroke-width="0" fill="#3366cc"></rect><rect x="300.5" y="273" width="2" height="212" stroke="none" stroke-width="0" fill="#3366cc"></rect><rect x="304.5" y="358" width="2" height="127" stroke="none" stroke-width="0" fill="#3366cc"></rect><rect x="308.5" y="321" width="2" height="164" stroke="none" stroke-width="0" fill="#3366cc"></rect><rect x="312.5" y="312" width="2" height="173" stroke="none" stroke-width="0" fill="#3366cc"></rect><rect x="317.5" y="355" width="2" height="130" stroke="none" stroke-width="0" fill="#3366cc"></rect><rect x="321.5" y="321" width="2" height="164" stroke="none" stroke-width="0" fill="#3366cc"></rect><rect x="325.5" y="323" width="2" height="162" stroke="none" stroke-width="0" fill="#3366cc"></rect><rect x="329.5" y="323" width="2" height="162" stroke="none" stroke-width="0" fill="#3366cc"></rect><rect x="333.5" y="382" width="2" height="103" stroke="none" stroke-width="0" fill="#3366cc"></rect><rect x="337.5" y="332" width="2" height="153" stroke="none" stroke-width="0" fill="#3366cc"></rect><rect x="341.5" y="340" width="2" height="145" stroke="none" stroke-width="0" fill="#3366cc"></rect><rect x="345.5" y="366" width="2" height="119" stroke="none" stroke-width="0" fill="#3366cc"></rect><rect x="349.5" y="299" width="2" height="186" stroke="none" stroke-width="0" fill="#3366cc"></rect><rect x="353.5" y="368" width="2" height="117" stroke="none" stroke-width="0" fill="#3366cc"></rect><rect x="358.5" y="349" width="2" height="136" stroke="none" stroke-width="0" fill="#3366cc"></rect><rect x="362.5" y="318" width="2" height="167" stroke="none" stroke-width="0" fill="#3366cc"></rect><rect x="366.5" y="329" width="2" height="156" stroke="none" stroke-width="0" fill="#3366cc"></rect><rect x="370.5" y="334" width="2" height="151" stroke="none" stroke-width="0" fill="#3366cc"></rect><rect x="374.5" y="331" width="2" height="154" stroke="none" stroke-width="0" fill="#3366cc"></rect><rect x="378.5" y="277" width="2" height="208" stroke="none" stroke-width="0" fill="#3366cc"></rect><rect x="382.5" y="312" width="2" height="173" stroke="none" stroke-width="0" fill="#3366cc"></rect><rect x="386.5" y="295" width="2" height="190" stroke="none" stroke-width="0" fill="#3366cc"></rect><rect x="390.5" y="307" width="2" height="178" stroke="none" stroke-width="0" fill="#3366cc"></rect><rect x="394.5" y="273" width="2" height="212" stroke="none" stroke-width="0" fill="#3366cc"></rect><rect x="399.5" y="305" width="2" height="180" stroke="none" stroke-width="0" fill="#3366cc"></rect><rect x="403.5" y="194" width="2" height="291" stroke="none" stroke-width="0" fill="#3366cc"></rect><rect x="407.5" y="286" width="2" height="199" stroke="none" stroke-width="0" fill="#3366cc"></rect><rect x="411.5" y="355" width="2" height="130" stroke="none" stroke-width="0" fill="#3366cc"></rect><rect x="415.5" y="301" width="2" height="184" stroke="none" stroke-width="0" fill="#3366cc"></rect><rect x="419.5" y="303" width="2" height="182" stroke="none" stroke-width="0" fill="#3366cc"></rect><rect x="423.5" y="244" width="2" height="241" stroke="none" stroke-width="0" fill="#3366cc"></rect><rect x="427.5" y="308" width="2" height="177" stroke="none" stroke-width="0" fill="#3366cc"></rect><rect x="431.5" y="336" width="2" height="149" stroke="none" stroke-width="0" fill="#3366cc"></rect><rect x="435.5" y="294" width="2" height="191" stroke="none" stroke-width="0" fill="#3366cc"></rect><rect x="440.5" y="295" width="2" height="190" stroke="none" stroke-width="0" fill="#3366cc"></rect><rect x="444.5" y="329" width="2" height="156" stroke="none" stroke-width="0" fill="#3366cc"></rect><rect x="448.5" y="301" width="2" height="184" stroke="none" stroke-width="0" fill="#3366cc"></rect><rect x="452.5" y="366" width="2" height="119" stroke="none" stroke-width="0" fill="#3366cc"></rect><rect x="456.5" y="342" width="2" height="143" stroke="none" stroke-width="0" fill="#3366cc"></rect><rect x="460.5" y="399" width="2" height="86" stroke="none" stroke-width="0" fill="#3366cc"></rect><rect x="464.5" y="368" width="2" height="117" stroke="none" stroke-width="0" fill="#3366cc"></rect><rect x="468.5" y="331" width="2" height="154" stroke="none" stroke-width="0" fill="#3366cc"></rect><rect x="472.5" y="373" width="2" height="112" stroke="none" stroke-width="0" fill="#3366cc"></rect><rect x="476.5" y="332" width="2" height="153" stroke="none" stroke-width="0" fill="#3366cc"></rect><rect x="481.5" y="384" width="2" height="101" stroke="none" stroke-width="0" fill="#3366cc"></rect><rect x="485.5" y="403" width="2" height="82" stroke="none" stroke-width="0" fill="#3366cc"></rect><rect x="489.5" y="299" width="2" height="186" stroke="none" stroke-width="0" fill="#3366cc"></rect><rect x="493.5" y="419" width="2" height="66" stroke="none" stroke-width="0" fill="#3366cc"></rect><rect x="497.5" y="431" width="2" height="54" stroke="none" stroke-width="0" fill="#3366cc"></rect><rect x="501.5" y="392" width="2" height="93" stroke="none" stroke-width="0" fill="#3366cc"></rect><rect x="505.5" y="399" width="2" height="86" stroke="none" stroke-width="0" fill="#3366cc"></rect><rect x="509.5" y="405" width="2" height="80" stroke="none" stroke-width="0" fill="#3366cc"></rect><rect x="513.5" y="345" width="2" height="140" stroke="none" stroke-width="0" fill="#3366cc"></rect><rect x="517.5" y="271" width="2" height="214" stroke="none" stroke-width="0" fill="#3366cc"></rect><rect x="522.5" y="325" width="2" height="160" stroke="none" stroke-width="0" fill="#3366cc"></rect><rect x="526.5" y="334" width="2" height="151" stroke="none" stroke-width="0" fill="#3366cc"></rect><rect x="530.5" y="325" width="2" height="160" stroke="none" stroke-width="0" fill="#3366cc"></rect><rect x="534.5" y="321" width="2" height="164" stroke="none" stroke-width="0" fill="#3366cc"></rect><rect x="538.5" y="233" width="2" height="252" stroke="none" stroke-width="0" fill="#3366cc"></rect><rect x="542.5" y="295" width="2" height="190" stroke="none" stroke-width="0" fill="#3366cc"></rect><rect x="546.5" y="308" width="2" height="177" stroke="none" stroke-width="0" fill="#3366cc"></rect><rect x="550.5" y="238" width="2" height="247" stroke="none" stroke-width="0" fill="#3366cc"></rect><rect x="554.5" y="379" width="2" height="106" stroke="none" stroke-width="0" fill="#3366cc"></rect><rect x="558.5" y="323" width="2" height="162" stroke="none" stroke-width="0" fill="#3366cc"></rect><rect x="563.5" y="334" width="2" height="151" stroke="none" stroke-width="0" fill="#3366cc"></rect><rect x="567.5" y="338" width="2" height="147" stroke="none" stroke-width="0" fill="#3366cc"></rect><rect x="571.5" y="368" width="2" height="117" stroke="none" stroke-width="0" fill="#3366cc"></rect><rect x="575.5" y="325" width="2" height="160" stroke="none" stroke-width="0" fill="#3366cc"></rect><rect x="579.5" y="386" width="2" height="99" stroke="none" stroke-width="0" fill="#3366cc"></rect><rect x="583.5" y="320" width="2" height="165" stroke="none" stroke-width="0" fill="#3366cc"></rect><rect x="587.5" y="303" width="2" height="182" stroke="none" stroke-width="0" fill="#3366cc"></rect><rect x="591.5" y="270" width="2" height="215" stroke="none" stroke-width="0" fill="#3366cc"></rect><rect x="595.5" y="277" width="2" height="208" stroke="none" stroke-width="0" fill="#3366cc"></rect><rect x="599.5" y="301" width="2" height="184" stroke="none" stroke-width="0" fill="#3366cc"></rect><rect x="604.5" y="369" width="2" height="116" stroke="none" stroke-width="0" fill="#3366cc"></rect><rect x="608.5" y="257" width="2" height="228" stroke="none" stroke-width="0" fill="#3366cc"></rect><rect x="612.5" y="203" width="2" height="282" stroke="none" stroke-width="0" fill="#3366cc"></rect><rect x="616.5" y="133" width="2" height="352" stroke="none" stroke-width="0" fill="#3366cc"></rect><rect x="620.5" y="249" width="2" height="236" stroke="none" stroke-width="0" fill="#3366cc"></rect><rect x="624.5" y="192" width="2" height="293" stroke="none" stroke-width="0" fill="#3366cc"></rect><rect x="628.5" y="268" width="2" height="217" stroke="none" stroke-width="0" fill="#3366cc"></rect><rect x="632.5" y="123" width="2" height="362" stroke="none" stroke-width="0" fill="#3366cc"></rect><rect x="636.5" y="275" width="2" height="210" stroke="none" stroke-width="0" fill="#3366cc"></rect><rect x="640.5" y="118" width="2" height="367" stroke="none" stroke-width="0" fill="#3366cc"></rect><rect x="645.5" y="142" width="2" height="343" stroke="none" stroke-width="0" fill="#3366cc"></rect><rect x="649.5" y="284" width="2" height="201" stroke="none" stroke-width="0" fill="#3366cc"></rect><rect x="653.5" y="310" width="2" height="175" stroke="none" stroke-width="0" fill="#3366cc"></rect><rect x="657.5" y="312" width="2" height="173" stroke="none" stroke-width="0" fill="#3366cc"></rect><rect x="661.5" y="273" width="2" height="212" stroke="none" stroke-width="0" fill="#3366cc"></rect><rect x="665.5" y="286" width="2" height="199" stroke="none" stroke-width="0" fill="#3366cc"></rect><rect x="669.5" y="295" width="2" height="190" stroke="none" stroke-width="0" fill="#3366cc"></rect><rect x="673.5" y="216" width="2" height="269" stroke="none" stroke-width="0" fill="#3366cc"></rect><rect x="677.5" y="301" width="2" height="184" stroke="none" stroke-width="0" fill="#3366cc"></rect><rect x="681.5" y="292" width="2" height="193" stroke="none" stroke-width="0" fill="#3366cc"></rect><rect x="686.5" y="332" width="2" height="153" stroke="none" stroke-width="0" fill="#3366cc"></rect><rect x="690.5" y="351" width="2" height="134" stroke="none" stroke-width="0" fill="#3366cc"></rect></g><g><rect x="164" y="485" width="530" height="1" stroke="none" stroke-width="0" fill="#333333"></rect></g></g><g></g><g><g><text text-anchor="end" x="169.0003875968992" y="506.24352447854375" font-family="Arial" font-size="14" transform="rotate(-30 169.0003875968992 506.24352447854375)" stroke="none" stroke-width="0" fill="#222222">1891</text></g><g><text text-anchor="end" x="201.80658914728681" y="506.24352447854375" font-family="Arial" font-size="14" transform="rotate(-30 201.80658914728681 506.24352447854375)" stroke="none" stroke-width="0" fill="#222222">1899</text></g><g><text text-anchor="end" x="234.61279069767443" y="506.24352447854375" font-family="Arial" font-size="14" transform="rotate(-30 234.61279069767443 506.24352447854375)" stroke="none" stroke-width="0" fill="#222222">1907</text></g><g><text text-anchor="end" x="267.418992248062" y="506.24352447854375" font-family="Arial" font-size="14" transform="rotate(-30 267.418992248062 506.24352447854375)" stroke="none" stroke-width="0" fill="#222222">1915</text></g><g><text text-anchor="end" x="300.2251937984496" y="506.24352447854375" font-family="Arial" font-size="14" transform="rotate(-30 300.2251937984496 506.24352447854375)" stroke="none" stroke-width="0" fill="#222222">1923</text></g><g><text text-anchor="end" x="333.0313953488372" y="506.24352447854375" font-family="Arial" font-size="14" transform="rotate(-30 333.0313953488372 506.24352447854375)" stroke="none" stroke-width="0" fill="#222222">1931</text></g><g><text text-anchor="end" x="365.8375968992248" y="506.24352447854375" font-family="Arial" font-size="14" transform="rotate(-30 365.8375968992248 506.24352447854375)" stroke="none" stroke-width="0" fill="#222222">1939</text></g><g><text text-anchor="end" x="398.6437984496124" y="506.24352447854375" font-family="Arial" font-size="14" transform="rotate(-30 398.6437984496124 506.24352447854375)" stroke="none" stroke-width="0" fill="#222222">1947</text></g><g><text text-anchor="end" x="431.45" y="506.24352447854375" font-family="Arial" font-size="14" transform="rotate(-30 431.45 506.24352447854375)" stroke="none" stroke-width="0" fill="#222222">1955</text></g><g><text text-anchor="end" x="464.2562015503876" y="506.24352447854375" font-family="Arial" font-size="14" transform="rotate(-30 464.2562015503876 506.24352447854375)" stroke="none" stroke-width="0" fill="#222222">1963</text></g><g><text text-anchor="end" x="497.0624031007752" y="506.24352447854375" font-family="Arial" font-size="14" transform="rotate(-30 497.0624031007752 506.24352447854375)" stroke="none" stroke-width="0" fill="#222222">1971</text></g><g><text text-anchor="end" x="529.8686046511629" y="506.24352447854375" font-family="Arial" font-size="14" transform="rotate(-30 529.8686046511629 506.24352447854375)" stroke="none" stroke-width="0" fill="#222222">1979</text></g><g><text text-anchor="end" x="562.6748062015504" y="506.24352447854375" font-family="Arial" font-size="14" transform="rotate(-30 562.6748062015504 506.24352447854375)" stroke="none" stroke-width="0" fill="#222222">1987</text></g><g><text text-anchor="end" x="595.481007751938" y="506.24352447854375" font-family="Arial" font-size="14" transform="rotate(-30 595.481007751938 506.24352447854375)" stroke="none" stroke-width="0" fill="#222222">1995</text></g><g><text text-anchor="end" x="628.2872093023257" y="506.24352447854375" font-family="Arial" font-size="14" transform="rotate(-30 628.2872093023257 506.24352447854375)" stroke="none" stroke-width="0" fill="#222222">2003</text></g><g><text text-anchor="end" x="661.0934108527133" y="506.24352447854375" font-family="Arial" font-size="14" transform="rotate(-30 661.0934108527133 506.24352447854375)" stroke="none" stroke-width="0" fill="#222222">2011</text></g><g><text text-anchor="end" x="693.8996124031008" y="506.24352447854375" font-family="Arial" font-size="14" transform="rotate(-30 693.8996124031008 506.24352447854375)" stroke="none" stroke-width="0" fill="#222222">2019</text></g><g><text text-anchor="end" x="150" y="490.4" font-family="Arial" font-size="14" stroke="none" stroke-width="0" fill="#444444">0</text></g><g><text text-anchor="end" x="150" y="397.9" font-family="Arial" font-size="14" stroke="none" stroke-width="0" fill="#444444">50</text></g><g><text text-anchor="end" x="150" y="305.4" font-family="Arial" font-size="14" stroke="none" stroke-width="0" fill="#444444">100</text></g><g><text text-anchor="end" x="150" y="212.9" font-family="Arial" font-size="14" stroke="none" stroke-width="0" fill="#444444">150</text></g><g><text text-anchor="end" x="150" y="120.4" font-family="Arial" font-size="14" stroke="none" stroke-width="0" fill="#444444">200</text></g></g></g><g></g></svg>